<svg xmlns="http://www.w3.org/2000/svg" width="14.406" height="11.941" viewBox="0 0 14.406 11.941">
    <g>
        <g>
            <g>
                <g>
                    <g>
                        <path fill="#08c" stroke="#e5f3fa" stroke-width="0.3px" d="M47.229 91.379h-8.123l1.841-1.627a.475.475 0 0 0-.037-.663.457.457 0 0 0-.653.038l-2.172 2a1.091 1.091 0 0 0 0 1.436l1.838 2a.457.457 0 0 0 .653.038.475.475 0 0 0 .037-.663l-1.508-1.627h8.123a3.677 3.677 0 0 1 0 7.354h-9.1a.47.47 0 0 0 0 .939h9.1a4.616 4.616 0 0 0 0-9.232z" transform="translate(-378.984 -536.222) translate(379.134 536.372) translate(-37.668 -88.97)"/>
                    </g>
                </g>
            </g>
        </g>
        <g>
            <path fill="#08c" d="M5.473 68.079a.278.278 0 0 0-.393 0l-3.327 3.328-1.279-1.28a.278.278 0 1 0-.393.393L1.556 72a.278.278 0 0 0 .393 0l3.524-3.524a.278.278 0 0 0 0-.397z" transform="translate(-378.984 -536.222) translate(384.32 540.193) translate(.314 -66.68)"/>
        </g>
    </g>
</svg>
