<svg xmlns="http://www.w3.org/2000/svg" width="15.361" height="11.229" viewBox="0 0 15.361 11.229">
    <defs>
        <style>
            .cls-1{fill:#3587c6}
        </style>
    </defs>
    <g id="Group_625" transform="translate(-3940.8 14313)">
        <path id="Path_605" d="M15.02 78.513l.01-.017.009-.019v-.006l.005-.014v-.039c.01-.076.186-1.49.264-2.4.023-.264.037-.485.037-.621a2.928 2.928 0 0 0-2.925-2.925h-.967l.291-3.345v-.018a.225.225 0 0 0-.136-.206l-.015-.006H6.931a.225.225 0 0 0 0 .45h4.36l-.448 5.142-.113 1.3H2.911l.131-1.35H4.53a.225.225 0 1 0 0-.45H3.085l.276-2.85h2.37a.225.225 0 1 0 0-.45H3.4l.13-1.34h2.5a.225.225 0 0 0 0-.45h-2.7a.225.225 0 0 0-.22.178V69.099l-.154 1.587H.225a.225.225 0 1 0 0 .45h2.684l-.276 2.85h-.8a.225.225 0 1 0 0 .45h.759l-.15 1.552-.232 2.4v.087a.225.225 0 0 0 .053.088l.008.007a.224.224 0 0 0 .052.036l.012.006.017.006.02.005h1.06a1.713 1.713 0 0 0 3.4 0h3.609a1.713 1.713 0 0 0 3.4 0H14.955l.009-.006.008-.006.009-.007.007-.006.009-.008.003-.049.009-.01v-.005zm-.109-3.13c0 .084-.006.207-.017.354a1.473 1.473 0 0 1-.789-.59 2.113 2.113 0 0 0-1.422-.876l.116-1.337a2.479 2.479 0 0 1 2.112 2.449zm-2.561-2.475l-.118 1.35h-.921l.118-1.35zm-1.414 3.3H11.039l.009-.005.009-.006.008-.006.009-.007.008-.006.008-.008.007-.007.008-.009.006-.007.007-.01.005-.007.006-.01v-.008l.005-.011V76.038v-.011l.113-1.295h1.163a1.612 1.612 0 0 1 1.329.735 1.846 1.846 0 0 0 1.09.745c-.065.692-.171 1.581-.219 1.97h-.8a1.713 1.713 0 0 0-3.4 0H6.829a1.713 1.713 0 0 0-3.4 0h-.751l.189-1.95h8.069zm-5.805 3.438a1.263 1.263 0 1 1 1.263-1.263 1.265 1.265 0 0 1-1.263 1.263zm7.005 0a1.263 1.263 0 1 1 1.264-1.263 1.265 1.265 0 0 1-1.264 1.263z" class="cls-1" transform="translate(3940.8 -14381.868)"/>
        <path id="Path_608" d="M28.384 188.752a.225.225 0 0 0-.225-.225h-1.1a.225.225 0 0 0 0 .45h1.1a.225.225 0 0 0 .225-.225z" class="cls-1" transform="translate(3915.685 -14497.938)"/>
    </g>
</svg>
