<svg xmlns="http://www.w3.org/2000/svg" width="16.365" height="16.373" viewBox="0 0 16.365 16.373"><g transform="translate(-3 -2.987)"><path d="M15.922,6.772h-.378a4.406,4.406,0,0,0-8.724,0H6.443A3.449,3.449,0,0,0,3,10.215v.667a3.449,3.449,0,0,0,3.443,3.443.629.629,0,0,0,0-1.259,2.19,2.19,0,0,1-2.184-2.184v-.667A2.19,2.19,0,0,1,6.443,8.031h.963A.629.629,0,0,0,8.035,7.4a3.147,3.147,0,0,1,6.294,0,.629.629,0,0,0,.629.629h.963a2.19,2.19,0,0,1,2.184,2.184v.667a2.19,2.19,0,0,1-2.184,2.184.629.629,0,1,0,0,1.259,3.449,3.449,0,0,0,3.443-3.443v-.667a3.449,3.449,0,0,0-3.443-3.443Z" fill="#3792fc"/><path d="M16.216,19.477l-1.441,1.448V13.629a.629.629,0,0,0-1.259,0v7.295l-1.441-1.448a.632.632,0,0,0-.894.894L13.7,22.888a.629.629,0,0,0,.208.132.592.592,0,0,0,.478,0,.629.629,0,0,0,.208-.132L17.11,20.37a.632.632,0,0,0-.894-.894Z" transform="translate(-2.963 -3.711)" fill="#3792fc"/></g></svg>