<svg xmlns="http://www.w3.org/2000/svg" width="13.822" height="17.656" viewBox="0 0 13.822 17.656"><g transform="translate(0 0)"><path d="M143.339,64.984a6.355,6.355,0,0,0-6,8.426c.86,2.488,6,8.105,6,8.105s5.146-5.619,6-8.11a6.355,6.355,0,0,0-6-8.422Zm0,9.029a2.679,2.679,0,1,1,2.678-2.678A2.678,2.678,0,0,1,143.339,74.013Z" transform="translate(-136.426 -64.421)" fill="#3792fc"/><g transform="translate(0 0)"><path d="M115.944,36.984a6.909,6.909,0,0,0-6.855,7.778,6.378,6.378,0,0,0,.386,1.564,8.172,8.172,0,0,0,.419.877,18.343,18.343,0,0,0,1.146,1.776c.914,1.281,1.91,2.506,2.931,3.7.515.6,1.037,1.205,1.574,1.792l0,0a.564.564,0,0,0,.8,0c.51-.557,1.007-1.128,1.5-1.7,1.019-1.192,2.011-2.411,2.929-3.684a19.732,19.732,0,0,0,1.172-1.792,6.711,6.711,0,0,0,.811-2.2,6.885,6.885,0,0,0-1.606-5.747,6.943,6.943,0,0,0-5.032-2.359l-.17,0a.563.563,0,1,0,0,1.125,6.62,6.62,0,0,1,.864.058l-.15-.02a6.437,6.437,0,0,1,1.316.326l.15.057c.045.017.229.1.038.014.106.045.211.094.314.145a6.339,6.339,0,0,1,.577.324c.089.056.177.115.263.176l.128.093.063.048c.076.058-.122-.1-.01-.007a6.39,6.39,0,0,1,.937.918c.034.04.067.081.1.123.065.082-.087-.114-.023-.031l.048.063c.068.092.134.185.2.28a6.349,6.349,0,0,1,.348.593c.053.1.1.206.15.311l.032.073c.042.1-.056-.134-.015-.036.024.058.047.116.069.174a6.32,6.32,0,0,1,.354,1.391l-.02-.15a6.53,6.53,0,0,1,0,1.727l.02-.15a5.923,5.923,0,0,1-.37,1.426c-.042.1.069-.16.015-.035l-.039.087c-.03.066-.061.13-.093.2-.066.134-.137.266-.21.4a18.93,18.93,0,0,1-1.159,1.785q-.344.48-.7.949l-.087.114-.044.057.029-.038-.191.245q-.184.234-.37.466-.693.864-1.413,1.7c-.5.58-1,1.156-1.511,1.718h.8c-.51-.557-1.006-1.128-1.5-1.7s-.95-1.126-1.411-1.7q-.186-.232-.37-.465l-.177-.226c-.03-.038-.143-.185-.015-.019l-.1-.133q-.36-.469-.705-.949A19.339,19.339,0,0,1,110.9,46.7q-.11-.2-.211-.4-.045-.09-.087-.181l-.04-.088-.019-.043c-.043-.1.058.138.027.063a5.833,5.833,0,0,1-.372-1.405l-.005-.037.02.15a6.529,6.529,0,0,1,0-1.729l-.02.15a6.437,6.437,0,0,1,.326-1.316c.018-.05.037-.1.057-.15s.1-.229.014-.038c.045-.106.094-.211.145-.314a6.335,6.335,0,0,1,.324-.577c.056-.089.115-.177.176-.263.03-.043.061-.086.093-.128l.048-.063c.058-.076-.1.122-.007.01a6.389,6.389,0,0,1,.918-.938l.123-.1c.082-.065-.114.087-.031.023l.063-.048c.092-.068.185-.134.28-.2a6.346,6.346,0,0,1,.593-.348c.1-.053.206-.1.311-.15l.073-.032c.1-.042-.134.056-.036.015.058-.024.116-.047.174-.069a6.319,6.319,0,0,1,1.391-.354l-.15.02a6.622,6.622,0,0,1,.864-.058.563.563,0,1,0,0-1.125Z" transform="translate(-109.032 -36.984)" fill="#3792fc"/><path d="M294.977,225.128a2.927,2.927,0,0,1-.361-.024l.15.02a2.846,2.846,0,0,1-.4-.085c-.069-.02-.136-.044-.2-.069-.135-.051.1.044.011.006l-.1-.045a2.679,2.679,0,0,1-.362-.215c-.035-.025-.144-.108.009.01-.028-.021-.055-.044-.081-.066-.054-.045-.1-.093-.155-.142s-.1-.1-.143-.153c-.023-.026-.045-.053-.067-.081-.06-.074.092.124.009.009a2.685,2.685,0,0,1-.219-.36c-.016-.031-.031-.063-.046-.1-.06-.131.041.1,0,.012-.027-.066-.05-.134-.071-.2a2.674,2.674,0,0,1-.093-.424l.02.15a2.806,2.806,0,0,1,0-.722l-.02.15a2.857,2.857,0,0,1,.085-.4c.02-.069.044-.136.069-.2.051-.135-.044.1-.006.011.014-.032.029-.064.045-.1a2.68,2.68,0,0,1,.215-.362c.025-.035.108-.144-.01.009.021-.028.044-.055.066-.081.045-.054.093-.1.142-.155s.1-.1.153-.143c.026-.023.053-.045.081-.067.074-.06-.124.092-.009.009a2.678,2.678,0,0,1,.36-.219l.1-.046c.131-.06-.1.041-.012,0,.066-.027.134-.05.2-.071a2.669,2.669,0,0,1,.424-.093l-.15.02a2.805,2.805,0,0,1,.722,0l-.15-.02a2.849,2.849,0,0,1,.4.085c.069.02.136.044.2.069.135.051-.1-.044-.011-.006l.1.045a2.675,2.675,0,0,1,.362.215c.035.025.144.108-.009-.01.028.021.055.044.081.066.054.045.1.093.155.142s.1.1.143.153c.023.026.045.053.067.081.06.074-.092-.124-.009-.009a2.678,2.678,0,0,1,.219.36c.016.031.031.063.046.1.06.131-.041-.1,0-.012.027.066.05.134.071.2a2.665,2.665,0,0,1,.093.424l-.02-.15a2.806,2.806,0,0,1,0,.722l.02-.15a2.852,2.852,0,0,1-.085.4c-.02.069-.044.136-.069.2-.051.135.044-.1.006-.011-.014.032-.029.064-.045.1a2.68,2.68,0,0,1-.215.362c-.025.035-.108.144.01-.009-.021.028-.044.055-.066.081-.045.054-.093.1-.142.155s-.1.1-.153.143c-.026.023-.053.045-.081.067-.074.06.124-.092.009-.009a2.68,2.68,0,0,1-.36.219l-.1.046c-.131.06.1-.041.012,0-.066.027-.134.05-.2.071a2.668,2.668,0,0,1-.424.093l.15-.02a2.927,2.927,0,0,1-.361.024.563.563,0,0,0,0,1.125,3.339,3.339,0,0,0,1.536-.387,3.3,3.3,0,0,0,1.139-1.027,3.224,3.224,0,0,0,.368-2.939,3.237,3.237,0,0,0-5.191-1.314,3.22,3.22,0,0,0-1.076,2.732,3.235,3.235,0,0,0,3.224,2.935.563.563,0,1,0,0-1.125Z" transform="translate(-288.064 -216.099)" fill="#3792fc"/></g></g></svg>