<svg xmlns="http://www.w3.org/2000/svg" width="23.839" height="20.859" viewBox="0 0 23.839 20.859">
  <path id="Icon_awesome-camera" data-name="Icon awesome-camera" d="M23.839,7.465V20.874A2.235,2.235,0,0,1,21.6,23.109H2.235A2.235,2.235,0,0,1,0,20.874V7.465A2.235,2.235,0,0,1,2.235,5.23h4.1L6.9,3.7A2.232,2.232,0,0,1,9,2.25h5.843A2.232,2.232,0,0,1,16.929,3.7l.577,1.532h4.1A2.235,2.235,0,0,1,23.839,7.465Zm-6.332,6.7a5.587,5.587,0,1,0-5.587,5.587A5.592,5.592,0,0,0,17.507,14.169Zm-1.49,0a4.1,4.1,0,1,1-4.1-4.1A4.1,4.1,0,0,1,16.017,14.169Z" transform="translate(0 -2.25)" fill="#617d92"/>
</svg>
