<svg xmlns="http://www.w3.org/2000/svg" width="90.394" height="90.394" viewBox="0 0 90.394 90.394">
  <path id="Icon_awesome-check-circle" data-name="Icon awesome-check-circle" d="M90.957,45.76A45.2,45.2,0,1,1,45.76.563,45.2,45.2,0,0,1,90.957,45.76ZM40.532,69.691,74.065,36.158a2.916,2.916,0,0,0,0-4.124L69.941,27.91a2.916,2.916,0,0,0-4.124,0L38.47,55.258,25.7,42.49a2.916,2.916,0,0,0-4.124,0l-4.124,4.124a2.916,2.916,0,0,0,0,4.124L36.408,69.691a2.916,2.916,0,0,0,4.124,0Z" transform="translate(-0.563 -0.563)" fill="#c99b45"/>
</svg>
