<svg xmlns="http://www.w3.org/2000/svg" width="14.478" height="17.783" viewBox="0 0 14.478 17.783">
  <g id="delete_fav" transform="translate(0.061 0.052)">
    <path id="Path_629" data-name="Path 629" d="M222.813,154.7a.414.414,0,0,0-.414.414v7.827a.414.414,0,1,0,.828,0v-7.827A.414.414,0,0,0,222.813,154.7Zm0,0" transform="translate(-213.192 -148.298)" fill="#fff" stroke="#fff" stroke-width="0.1"/>
    <path id="Path_630" data-name="Path 630" d="M104.813,154.7a.414.414,0,0,0-.414.414v7.827a.414.414,0,1,0,.828,0v-7.827A.414.414,0,0,0,104.813,154.7Zm0,0" transform="translate(-100.078 -148.298)" fill="#fff" stroke="#fff" stroke-width="0.1"/>
    <path id="Path_631" data-name="Path 631" d="M1.173,5.263v10.2a2.285,2.285,0,0,0,.607,1.576,2.039,2.039,0,0,0,1.48.64H11.1a2.039,2.039,0,0,0,1.48-.64,2.285,2.285,0,0,0,.607-1.576V5.263a1.582,1.582,0,0,0-.406-3.111h-2.12V1.634A1.627,1.627,0,0,0,9.016,0H5.339A1.627,1.627,0,0,0,3.7,1.634v.518H1.579a1.582,1.582,0,0,0-.406,3.111ZM11.1,16.853H3.26A1.312,1.312,0,0,1,2,15.466V5.3H12.354V15.466A1.312,1.312,0,0,1,11.1,16.853ZM4.527,1.634A.8.8,0,0,1,5.339.827H9.016a.8.8,0,0,1,.812.808v.518h-5.3ZM1.579,2.98h11.2a.745.745,0,0,1,0,1.491H1.579a.745.745,0,0,1,0-1.491Zm0,0" transform="translate(0 0)" fill="#fff" stroke="#fff" stroke-width="0.1"/>
    <path id="Path_632" data-name="Path 632" d="M163.813,154.7a.414.414,0,0,0-.414.414v7.827a.414.414,0,1,0,.828,0v-7.827A.414.414,0,0,0,163.813,154.7Zm0,0" transform="translate(-156.635 -148.298)" fill="#fff" stroke="#fff" stroke-width="0.1"/>
  </g>
</svg>
