<svg xmlns="http://www.w3.org/2000/svg" width="11.578" height="13.241" viewBox="0 0 11.578 13.241">
  <path id="Path_826" data-name="Path 826" d="M13.1,9.03,8.936,13.2A2.864,2.864,0,0,1,4.892,9.158l5.392-5.392a1.732,1.732,0,0,1,2.386,0,1.7,1.7,0,0,1,0,2.386L8.019,10.8a.515.515,0,0,1-.755-.7l3.457-3.451a.677.677,0,0,0-.957-.957L6.307,9.151a1.847,1.847,0,0,0,0,2.622,1.9,1.9,0,0,0,2.622,0l4.644-4.65A3.033,3.033,0,0,0,9.286,2.836L3.895,8.228a4.212,4.212,0,0,0,5.991,5.911l4.172-4.165a.677.677,0,1,0-.957-.957Z" transform="translate(-2.809 -2.022)"/>
</svg>
