<svg xmlns="http://www.w3.org/2000/svg" width="15.071" height="15.071" viewBox="0 0 15.071 15.071">
    <defs>
        <style>
            .cart-svg-om{fill:#fff;stroke:#fff;stroke-width:.1px}
        </style>
    </defs>
    <g id="shopping-cart_1_" transform="translate(.05 .05)">
        <g id="Group_227">
            <g id="Group_226">
                <path id="Path_546" d="M13.875 1.365H2.722v.1l-.14-.48A1.368 1.368 0 0 0 1.276 0H.34a.341.341 0 0 0 0 .683h.936a.684.684 0 0 1 .653.492l2.118 7.283-1.085 1.36a1.1 1.1 0 0 0 .856 1.782h9.452a.341.341 0 0 0 0-.683H3.818a.417.417 0 0 1-.324-.677l1.093-1.366h6.674a1.367 1.367 0 0 0 1.232-.784l2.374-5.061a1.111 1.111 0 0 0 .1-.468v-.1a1.1 1.1 0 0 0-1.092-1.096zm.415 1.2a.418.418 0 0 1-.04.177L11.877 7.8a.684.684 0 0 1-.616.392H4.678L2.892 2.048h10.983a.417.417 0 0 1 .415.417z" class="cart-svg-om"/>
                <path id="Path_547" d="M86.68 384a1.347 1.347 0 1 0 1.347 1.347A1.348 1.348 0 0 0 86.68 384zm0 2.02a.673.673 0 1 1 .673-.673.674.674 0 0 1-.673.673z" class="cart-svg-om" transform="translate(-82.605 -371.723)"/>
                <path id="Path_548" d="M342.68 384a1.347 1.347 0 1 0 1.347 1.347A1.348 1.348 0 0 0 342.68 384zm0 2.02a.673.673 0 1 1 .673-.673.674.674 0 0 1-.673.673z" class="cart-svg-om" transform="translate(-330.402 -371.723)"/>
            </g>
        </g>
    </g>
</svg>
