<svg xmlns="http://www.w3.org/2000/svg" width="489" height="512" viewBox="0 0 489 512">
    <defs>
        <clipPath id="fllhbp9xqa">
            <path fill="#fff" d="M0 0H489V512H0z"/>
        </clipPath>
    </defs>
    <g clip-path="url(#fllhbp9xqa)">
        <path fill="#fafbfd" d="M28.285 470.182c-11.13-12.086-11.13-31.681 0-43.768L327.346 101.66a26.934 26.934 0 0 1 40.3 0c11.13 12.087 11.13 31.682 0 43.768L68.589 470.182a26.934 26.934 0 0 1-40.3 0zm198.686-25.242c-11.13-12.086-11.13-31.682 0-43.768L451.83 156.994a26.935 26.935 0 0 1 40.306 0c11.129 12.087 11.13 31.682 0 43.768L267.275 444.94a26.934 26.934 0 0 1-40.3 0zM8.347 297.011c-11.129-12.087-11.129-31.682 0-43.768L233.208 9.064a26.934 26.934 0 0 1 40.3 0c11.13 12.086 11.13 31.682 0 43.768L48.653 297.011a27.311 27.311 0 0 1-20.153 9.065 27.311 27.311 0 0 1-20.153-9.065z" transform="translate(140.966 -151.647)"/>
    </g>
</svg>
