<svg xmlns="http://www.w3.org/2000/svg" width="63.377" height="72.431" viewBox="0 0 63.377 72.431"><path d="M61.679,67.9H58.85V3.4a3.4,3.4,0,0,0-3.4-3.4H7.922a3.4,3.4,0,0,0-3.4,3.4V67.9H1.7A1.7,1.7,0,0,0,0,69.6v2.829H63.377V69.6A1.7,1.7,0,0,0,61.679,67.9ZM18.108,10.751a1.7,1.7,0,0,1,1.7-1.7h5.659a1.7,1.7,0,0,1,1.7,1.7V16.41a1.7,1.7,0,0,1-1.7,1.7H19.805a1.7,1.7,0,0,1-1.7-1.7Zm0,13.581a1.7,1.7,0,0,1,1.7-1.7h5.659a1.7,1.7,0,0,1,1.7,1.7v5.659a1.7,1.7,0,0,1-1.7,1.7H19.805a1.7,1.7,0,0,1-1.7-1.7Zm7.356,20.937H19.805a1.7,1.7,0,0,1-1.7-1.7V37.913a1.7,1.7,0,0,1,1.7-1.7h5.659a1.7,1.7,0,0,1,1.7,1.7v5.659A1.7,1.7,0,0,1,25.464,45.269ZM36.215,67.9H27.162V56.021a1.7,1.7,0,0,1,1.7-1.7h5.659a1.7,1.7,0,0,1,1.7,1.7Zm9.054-24.332a1.7,1.7,0,0,1-1.7,1.7H37.913a1.7,1.7,0,0,1-1.7-1.7V37.913a1.7,1.7,0,0,1,1.7-1.7h5.659a1.7,1.7,0,0,1,1.7,1.7Zm0-13.581a1.7,1.7,0,0,1-1.7,1.7H37.913a1.7,1.7,0,0,1-1.7-1.7V24.332a1.7,1.7,0,0,1,1.7-1.7h5.659a1.7,1.7,0,0,1,1.7,1.7Zm0-13.581a1.7,1.7,0,0,1-1.7,1.7H37.913a1.7,1.7,0,0,1-1.7-1.7V10.751a1.7,1.7,0,0,1,1.7-1.7h5.659a1.7,1.7,0,0,1,1.7,1.7Z" fill="#3792fc"/></svg>