<svg xmlns="http://www.w3.org/2000/svg" width="15.44" height="15.436" viewBox="0 0 15.44 15.436">
    <path fill="#fff" d="M7.716 6a3.958 3.958 0 1 0 3.958 3.958A3.951 3.951 0 0 0 7.716 6zm0 6.531a2.573 2.573 0 1 1 2.573-2.573 2.578 2.578 0 0 1-2.573 2.573zm5.043-6.693a.923.923 0 1 1-.923-.923.921.921 0 0 1 .923.921zm2.621.937a4.568 4.568 0 0 0-1.247-3.234A4.6 4.6 0 0 0 10.9 2.292c-1.275-.072-5.1-.072-6.37 0A4.592 4.592 0 0 0 1.3 3.535 4.583 4.583 0 0 0 .049 6.77c-.072 1.274-.072 5.094 0 6.369A4.568 4.568 0 0 0 1.3 16.373a4.6 4.6 0 0 0 3.23 1.247c1.274.072 5.094.072 6.369 0a4.568 4.568 0 0 0 3.234-1.247 4.6 4.6 0 0 0 1.247-3.234c.072-1.274.072-5.091 0-6.365zm-1.646 7.733a2.6 2.6 0 0 1-1.467 1.467 17.012 17.012 0 0 1-4.55.31 17.145 17.145 0 0 1-4.55-.31A2.6 2.6 0 0 1 1.7 14.506a17.012 17.012 0 0 1-.31-4.55 17.145 17.145 0 0 1 .31-4.55 2.6 2.6 0 0 1 1.466-1.468 17.012 17.012 0 0 1 4.55-.31 17.145 17.145 0 0 1 4.55.31 2.6 2.6 0 0 1 1.467 1.467 17.012 17.012 0 0 1 .31 4.55 17 17 0 0 1-.309 4.551z" transform="translate(.005 -2.238)"/>
</svg>
