<svg xmlns="http://www.w3.org/2000/svg" width="16.053" height="13.038" viewBox="0 0 16.053 13.038">
    <path fill="#bde1f5" d="M14.4 6.63c.01.143.01.285.01.428a9.3 9.3 0 0 1-9.361 9.361A9.3 9.3 0 0 1 0 14.942a6.806 6.806 0 0 0 .795.041 6.589 6.589 0 0 0 4.085-1.406A3.3 3.3 0 0 1 1.8 11.3a4.149 4.149 0 0 0 .621.051 3.48 3.48 0 0 0 .866-.112A3.291 3.291 0 0 1 .652 8.005v-.041a3.313 3.313 0 0 0 1.487.418 3.295 3.295 0 0 1-1.019-4.4A9.352 9.352 0 0 0 7.9 7.425a3.714 3.714 0 0 1-.081-.754 3.293 3.293 0 0 1 5.698-2.251 6.478 6.478 0 0 0 2.083-.795 3.281 3.281 0 0 1-1.446 1.813 6.6 6.6 0 0 0 1.895-.509 7.072 7.072 0 0 1-1.65 1.7z" transform="translate(0 -3.381)"/>
</svg>
