<svg xmlns="http://www.w3.org/2000/svg" width="18" height="18" viewBox="0 0 18 18"><g transform="translate(-0.33 -5)"><circle cx="9" cy="9" r="9" transform="translate(0.33 5)" fill="#e2e5f1"/><path d="M-4.512-12.424a.141.141,0,0,0-.16.16v.192a1.9,1.9,0,0,1-.088.64,2.3,2.3,0,0,1-.328.56L-6.16-9.4a5.132,5.132,0,0,0-.616,1.032,2.66,2.66,0,0,0-.2,1.048,2.845,2.845,0,0,0,.208,1.1,2.449,2.449,0,0,0,.592.864,2.731,2.731,0,0,0,.912.56,3.322,3.322,0,0,0,1.184.2,2.977,2.977,0,0,0,2.04-.7,2.966,2.966,0,0,0,.968-1.848q.032-.144-.128-.176L-2.208-7.5q-.144-.032-.176.128A2.011,2.011,0,0,1-2.952-6.24a1.551,1.551,0,0,1-1.1.392,1.583,1.583,0,0,1-1.12-.4A1.41,1.41,0,0,1-5.6-7.336a1.732,1.732,0,0,1,.04-.384,1.9,1.9,0,0,1,.128-.368A3.4,3.4,0,0,1-5.2-8.5q.144-.224.352-.512l1.072-1.472a2.768,2.768,0,0,0,.368-.656,2.3,2.3,0,0,0,.112-.784v-.336a.141.141,0,0,0-.16-.16Zm1.3-2.416a.141.141,0,0,0-.16-.16H-4.592a.141.141,0,0,0-.16.16v1.376a.141.141,0,0,0,.16.16h1.216a.141.141,0,0,0,.16-.16Z" transform="translate(5.264 4.4) rotate(180)" fill="#fff"/></g></svg>