<svg xmlns="http://www.w3.org/2000/svg" width="30.849" height="9.972" viewBox="0 0 30.849 9.972"><path d="M7.767,20.055a1,1,0,0,0-1.13-.813H2.6l-.03.2c2.771.708,5.046,2.215,6.071,5.062l-.874-4.443ZM8.9,25.839,8.641,24.5a6.047,6.047,0,0,0-3.255-3.284L7.42,28.9h2.636l3.932-9.656H11.337l-2.44,6.6Zm7.035,3.072,1.566-9.67H15l-1.567,9.67Zm6.823-9.836c-2.47,0-4.2,1.311-4.217,3.193-.015,1.387,1.235,2.154,2.184,2.622.979.467,1.3.783,1.3,1.2,0,.648-.783.934-1.491.934a4.739,4.739,0,0,1-2.35-.5l-.332-.166L17.5,28.535a7.285,7.285,0,0,0,2.787.513c2.621.015,4.324-1.3,4.353-3.3,0-1.1-.677-1.928-2.109-2.622-.873-.436-1.4-.753-1.4-1.2,0-.406.451-.829,1.431-.829a4.155,4.155,0,0,1,1.868.362l.226.12L25,19.483a6.214,6.214,0,0,0-2.244-.407Zm6.719.166a1.237,1.237,0,0,0-1.311.813l-3.706,8.856h2.621c.423-1.189.528-1.446.528-1.446H30.8s.076.332.3,1.446h2.32L31.4,19.242H29.473Zm-1.161,6.236s.211-.558.995-2.7c-.015.015.211-.558.332-.919l.18.829c.467,2.3.573,2.787.573,2.787h-2.08Z" transform="translate(-2.571 -19.076)" fill="#a0a8b7"/></svg>