<svg xmlns="http://www.w3.org/2000/svg" width="13.928" height="12.933" viewBox="0 0 13.928 12.933">
    <path fill="#f7c51e" d="M15.65 7.852h-4.574L9.687 3.7a.5.5 0 0 0-.945 0l-1.39 4.152h-4.6a.5.5 0 0 0-.5.5.366.366 0 0 0 .009.084.478.478 0 0 0 .208.351l3.759 2.649-1.444 4.191a.5.5 0 0 0 .171.56.481.481 0 0 0 .28.121.609.609 0 0 0 .311-.112l3.669-2.615 3.668 2.619a.583.583 0 0 0 .311.112.447.447 0 0 0 .277-.121.493.493 0 0 0 .171-.56L12.2 11.433l3.726-2.673.09-.078a.475.475 0 0 0-.367-.83z" transform="translate(-2.25 -3.375)"/>
</svg>
