<svg xmlns="http://www.w3.org/2000/svg" width="22.809" height="15.791" viewBox="0 0 22.809 15.791">
    <defs>
        <style>
            .cls-1{fill:#fff}
        </style>
    </defs>
    <g id="Icon_ionic-ios-mail" transform="translate(-3.375 -7.875)">
        <path id="Path_583" d="M26 10.348l-5.9 6.009a.106.106 0 0 0 0 .154l4.129 4.4a.712.712 0 0 1 0 1.009.715.715 0 0 1-1.009 0l-4.112-4.381a.113.113 0 0 0-.159 0l-1 1.02a4.415 4.415 0 0 1-3.149 1.323 4.5 4.5 0 0 1-3.213-1.365l-.965-.981a.113.113 0 0 0-.159 0l-4.116 4.381a.715.715 0 0 1-1.009 0 .712.712 0 0 1 0-1.009l4.129-4.4a.117.117 0 0 0 0-.154l-5.906-6.006a.108.108 0 0 0-.186.077v12.023A1.76 1.76 0 0 0 5.13 24.2h19.3a1.76 1.76 0 0 0 1.755-1.755V10.424a.11.11 0 0 0-.185-.076z" class="cls-1" transform="translate(0 -.537)"/>
        <path id="Path_584" d="M14.967 17.914a2.981 2.981 0 0 0 2.144-.9l8.6-8.756a1.723 1.723 0 0 0-1.086-.384H5.311a1.712 1.712 0 0 0-1.086.384l8.6 8.756a2.981 2.981 0 0 0 2.142.9z" class="cls-1" transform="translate(-.187)"/>
    </g>
</svg>
