<svg xmlns="http://www.w3.org/2000/svg" width="18" height="18" viewBox="0 0 18 18">
    <defs>
        <style>
            .cls-phone-om{fill:#fff}
        </style>
    </defs>
    <g id="telephone">
        <g id="Group_330" transform="translate(12.689 10.596)">
            <g id="Group_329">
                <path id="Path_562" d="M365.765 304.078l-2.237-2.238a1.621 1.621 0 0 0-2.238 0l-.373.373 4.475 4.475.373-.373a1.581 1.581 0 0 0 0-2.237z" class="cls-phone-om" transform="translate(-360.917 -301.393)"/>
            </g>
        </g>
        <g id="Group_332" transform="translate(0 1.597)">
            <g id="Group_331">
                <path id="Path_563" d="M11.922 55.987a1.187 1.187 0 0 1-1.572-.081L5.927 51.48a1.187 1.187 0 0 1-.081-1.573l-4.465-4.464a5.694 5.694 0 0 0 .274 7.732l7 7a5.661 5.661 0 0 0 7.732.274z" class="cls-phone-om" transform="translate(0 -45.443)"/>
            </g>
        </g>
        <g id="Group_334" transform="translate(2.096)">
            <g id="Group_333">
                <path id="Path_564" d="M64.46 2.685L62.223.448a1.621 1.621 0 0 0-2.238 0l-.373.373L64.087 5.3l.373-.373a1.581 1.581 0 0 0 0-2.242z" class="cls-phone-om" transform="translate(-59.612)"/>
            </g>
        </g>
    </g>
</svg>
