<svg xmlns="http://www.w3.org/2000/svg" width="22.45" height="22.45" viewBox="0 0 22.45 22.45">
    <path fill="#fff" d="M13.679 2.25A10.979 10.979 0 0 0 2.658 13.186a10.823 10.823 0 0 0 1.581 5.647L2.25 24.7l6.1-1.938a11.04 11.04 0 0 0 16.35-9.576A10.979 10.979 0 0 0 13.679 2.25zm5.48 15.089A2.847 2.847 0 0 1 17.21 18.6c-.517.027-.532.4-3.349-.824a11.5 11.5 0 0 1-4.646-4.393 5.4 5.4 0 0 1-1.04-2.929 3.123 3.123 0 0 1 1.072-2.296 1.079 1.079 0 0 1 .763-.321c.222 0 .366-.007.53 0s.411-.034.624.533.724 1.962.789 2.1a.511.511 0 0 1 .005.49 1.914 1.914 0 0 1-.3.455c-.147.158-.309.353-.441.474-.146.134-.3.279-.145.565a8.434 8.434 0 0 0 1.492 1.991 7.689 7.689 0 0 0 2.21 1.469c.276.151.441.134.613-.047s.734-.789.932-1.061.384-.219.639-.117 1.611.83 1.888.98.461.227.527.346a2.314 2.314 0 0 1-.214 1.324z" transform="translate(-2.25 -2.25)"/>
</svg>
