<svg xmlns="http://www.w3.org/2000/svg" width="16.969" height="11.748" viewBox="0 0 16.969 11.748"><g transform="translate(-3.375 -7.875)"><path d="M20.206,10.339,15.817,14.81a.079.079,0,0,0,0,.114L18.888,18.2a.529.529,0,0,1,0,.751.532.532,0,0,1-.751,0l-3.059-3.259a.084.084,0,0,0-.118,0l-.746.759a3.284,3.284,0,0,1-2.341.987,3.35,3.35,0,0,1-2.39-1.016l-.718-.73a.084.084,0,0,0-.118,0L5.586,18.946a.532.532,0,0,1-.751,0,.529.529,0,0,1,0-.751l3.072-3.272a.087.087,0,0,0,0-.114L3.514,10.339a.08.08,0,0,0-.139.057v8.946A1.309,1.309,0,0,0,4.68,20.647H19.039a1.309,1.309,0,0,0,1.305-1.305V10.4A.082.082,0,0,0,20.206,10.339Z" transform="translate(0 -1.024)" fill="#3792fc"/><path d="M12.217,15.344a2.218,2.218,0,0,0,1.595-.669l6.4-6.514a1.282,1.282,0,0,0-.808-.286H5.033a1.274,1.274,0,0,0-.808.286l6.4,6.514A2.218,2.218,0,0,0,12.217,15.344Z" transform="translate(-0.357)" fill="#3792fc"/></g></svg>