<svg xmlns="http://www.w3.org/2000/svg" width="20.625" height="15" viewBox="0 0 20.625 15">
  <g id="Group_1564" data-name="Group 1564" transform="translate(-8 -14)">
    <path id="Path_793" data-name="Path 793" d="M10.813,14A2.817,2.817,0,0,0,8,16.813v9.375A2.817,2.817,0,0,0,10.813,29h15a2.817,2.817,0,0,0,2.813-2.812V16.813A2.817,2.817,0,0,0,25.813,14Zm0,.938h15a1.861,1.861,0,0,1,1.875,1.875v9.375a1.861,1.861,0,0,1-1.875,1.875h-15a1.861,1.861,0,0,1-1.875-1.875V16.813A1.861,1.861,0,0,1,10.813,14.938Z" fill="#3587c6"/>
    <path id="Path_794" data-name="Path 794" d="M14.482,20a.469.469,0,0,0-.345.8l5.625,5.625a2.465,2.465,0,0,0,3.475,0L28.862,20.8a.469.469,0,1,0-.663-.663l-5.625,5.625a1.513,1.513,0,0,1-2.15,0L14.8,20.137A.469.469,0,0,0,14.482,20Z" transform="translate(-3.187 -3.187)" fill="#3587c6"/>
  </g>
</svg>
