<svg xmlns="http://www.w3.org/2000/svg" width="17.683" height="17.683" viewBox="0 0 17.683 17.683">
  <path id="Path_796" data-name="Path 796" d="M2.474,8.841a7.368,7.368,0,1,1,7.368,7.368A7.368,7.368,0,0,1,2.474,8.841ZM9.841,0a8.841,8.841,0,1,0,8.841,8.841A8.841,8.841,0,0,0,9.841,0ZM9.1,5.157a.737.737,0,1,1,.737.737A.737.737,0,0,1,9.1,5.157Zm.737,8.1a.737.737,0,0,0,.737-.737V8.1A.737.737,0,1,0,9.1,8.1v4.421A.737.737,0,0,0,9.841,13.262Z" transform="translate(-1)" fill="#2e4e86" fill-rule="evenodd"/>
</svg>
